<?xml version="1.0" encoding="UTF-8"?>
<!DOCTYPE svg PUBLIC "-//W3C//DTD SVG 1.0//EN" "http://www.w3.org/TR/2001/REC-SVG-20010904/DTD/svg10.dtd">
<!-- Creator: CorelDRAW 2020 (64-Bit) -->
<svg xmlns="http://www.w3.org/2000/svg" xml:space="preserve" width="57px" height="57px" version="1.0" style="shape-rendering:geometricPrecision; text-rendering:geometricPrecision; image-rendering:optimizeQuality; fill-rule:evenodd; clip-rule:evenodd"
viewBox="0 0 87000 87000"
 xmlns:xlink="http://www.w3.org/1999/xlink"
 xmlns:xodm="http://www.corel.com/coreldraw/odm/2003">
 <defs>
  <style type="text/css">
   <![CDATA[
    .fil0 {fill:white;fill-rule:nonzero}
   ]]>
  </style>
 </defs>
 <g id="Слой_x0020_1">
  <metadata id="CorelCorpID_0Corel-Layer"/>
  <path class="fil0" d="M45000 55000c0,0 0,0 0,0l10000 -10000c0,0 0,0 0,0l7000 -7000c7000,2000 14000,0 19000,-5000 5000,-5000 7000,-13000 4000,-21000 0,-1000 -1000,-1000 -2000,-2000 -1000,0 -2000,0 -3000,1000l-7000 7000 -4000 -1000 -1000 -4000 7000 -7000c1000,0 1000,-2000 1000,-2000 0,-1000 -1000,-2000 -2000,-3000 -7000,-2000 -15000,-1000 -21000,5000 -5000,5000 -7000,12000 -5000,19000l-5000 5000 -8000 -8000 -7000 -12000c0,-1000 -1000,-1000 -1000,-1000l-12000 -7000c-1000,-1000 -3000,-1000 -4000,0l-9000 10000c-2000,1000 -2000,2000 -1000,3000l7000 12000c0,1000 1000,1000 1000,1000l12000 7000 8000 8000 -4000 4000c-7000,-2000 -14000,0 -19000,5000 -6000,5000 -7000,13000 -5000,21000 1000,1000 2000,1000 3000,2000 0,0 2000,0 2000,-1000l8000 -6000 4000 1000 1000 4000 -7000 6000c-1000,1000 -1000,2000 -1000,3000 0,1000 1000,2000 2000,2000 2000,1000 4000,2000 7000,2000 5000,0 10000,-2000 14000,-6000 5000,-5000 7000,-13000 5000,-20000l6000 -5000zm19000 -10000l-19000 19000 19000 19000c2000,2000 6000,4000 9000,4000 4000,0 7000,-1000 9000,-4000 3000,-3000 4000,-6000 4000,-10000 0,-3000 -1000,-6000 -4000,-9000l-18000 -19000z"/>
 </g>
</svg>
