<?xml version="1.0" encoding="UTF-8"?>
<!DOCTYPE svg PUBLIC "-//W3C//DTD SVG 1.0//EN" "http://www.w3.org/TR/2001/REC-SVG-20010904/DTD/svg10.dtd">
<!-- Creator: CorelDRAW 2020 (64-Bit) -->
<svg xmlns="http://www.w3.org/2000/svg" xml:space="preserve" width="64px" height="48px" version="1.0" style="shape-rendering:geometricPrecision; text-rendering:geometricPrecision; image-rendering:optimizeQuality; fill-rule:evenodd; clip-rule:evenodd"
viewBox="0 0 87000 65000"
 xmlns:xlink="http://www.w3.org/1999/xlink"
 xmlns:xodm="http://www.corel.com/coreldraw/odm/2003">
 <defs>
  <style type="text/css">
   <![CDATA[
    .fil0 {fill:white;fill-rule:nonzero}
   ]]>
  </style>
 </defs>
 <g id="Слой_x0020_1">
  <metadata id="CorelCorpID_0Corel-Layer"/>
  <path id="cloud" class="fil0" d="M65000 22000c0,-12000 -10000,-22000 -22000,-22000 -11000,0 -21000,10000 -21000,22000 -13000,0 -22000,10000 -22000,22000 0,12000 11000,21000 23000,21000l10000 0c2000,0 3000,-1000 3000,-3000l0 -11000 -4000 0c-3000,0 -5000,-4000 -3000,-6000l12000 -12000c1000,-1000 4000,-1000 5000,0l12000 12000c2000,2000 0,6000 -3000,6000l-4000 0 0 11000c0,2000 1000,3000 3000,3000l10000 0c12000,0 23000,-9000 23000,-21000 0,-12000 -9000,-22000 -22000,-22000z"/>
 </g>
</svg>
