<?xml version="1.0" encoding="UTF-8"?>
<!DOCTYPE svg PUBLIC "-//W3C//DTD SVG 1.0//EN" "http://www.w3.org/TR/2001/REC-SVG-20010904/DTD/svg10.dtd">
<!-- Creator: CorelDRAW 2020 (64-Bit) -->
<svg xmlns="http://www.w3.org/2000/svg" xml:space="preserve" width="58px" height="70px" version="1.0" style="shape-rendering:geometricPrecision; text-rendering:geometricPrecision; image-rendering:optimizeQuality; fill-rule:evenodd; clip-rule:evenodd"
viewBox="0 0 58000 70000"
 xmlns:xlink="http://www.w3.org/1999/xlink"
 xmlns:xodm="http://www.corel.com/coreldraw/odm/2003">
 <defs>
  <style type="text/css">
   <![CDATA[
    .fil0 {fill:white;fill-rule:nonzero}
   ]]>
  </style>
 </defs>
 <g id="Слой_x0020_1">
  <metadata id="CorelCorpID_0Corel-Layer"/>
  <path class="fil0" d="M39000 0l-20000 0c-1000,0 -3000,1000 -3000,3000l0 2000c0,2000 2000,3000 3000,3000l19000 0 1000 0c1000,0 3000,-1000 3000,-3000l0 -2000c0,-2000 -2000,-3000 -3000,-3000zm-10000 12000c-16000,0 -29000,13000 -29000,29000 0,16000 13000,29000 29000,29000 16000,0 29000,-13000 29000,-29000 0,-16000 -13000,-29000 -29000,-29000zm2000 29000c-2000,0 -2000,-1000 -2000,-1000l0 -17000c0,-1000 0,-2000 2000,-2000 0,0 0,0 0,0 0,0 0,0 0,0 5000,1000 16000,4000 18000,19000 0,0 0,1000 -1000,1000 -9000,0 -15000,0 -17000,0z"/>
 </g>
</svg>
