<?xml version="1.0" encoding="UTF-8"?>
<!DOCTYPE svg PUBLIC "-//W3C//DTD SVG 1.0//EN" "http://www.w3.org/TR/2001/REC-SVG-20010904/DTD/svg10.dtd">
<!-- Creator: CorelDRAW 2020 (64-Bit) -->
<svg xmlns="http://www.w3.org/2000/svg" xml:space="preserve" width="48px" height="48px" version="1.0" style="shape-rendering:geometricPrecision; text-rendering:geometricPrecision; image-rendering:optimizeQuality; fill-rule:evenodd; clip-rule:evenodd"
viewBox="0 0 43000 43000"
 xmlns:xlink="http://www.w3.org/1999/xlink"
 xmlns:xodm="http://www.corel.com/coreldraw/odm/2003">
 <defs>
  <style type="text/css">
   <![CDATA[
    .fil1 {fill:white;fill-rule:nonzero}
    .fil0 {fill:url(#id0)}
   ]]>
  </style>
  <linearGradient id="id0" gradientUnits="userSpaceOnUse" x1="36000" y1="0" x2="36000" y2="44000">
   <stop offset="0" style="stop-opacity:1; stop-color:#A4BBDA"/>
   <stop offset="1" style="stop-opacity:1; stop-color:#066399"/>
  </linearGradient>
 </defs>
 <g id="Слой_x0020_1">
  <metadata id="CorelCorpID_0Corel-Layer"/>
  <g id="_1911232159136">
   <path class="fil0" d="M40000 0l-37000 0c-2000,0 -3000,1000 -3000,3000l0 37000c0,2000 1000,3000 3000,3000l37000 0c2000,0 3000,-1000 3000,-3000l0 -37000c0,-2000 -1000,-3000 -3000,-3000z"/>
   <path class="fil1" d="M37000 36000l-7000 0 0 -10000c0,-3000 -1000,-5000 -3000,-5000 -2000,0 -3000,2000 -4000,3000 0,0 0,1000 0,1000l0 11000 -6000 0c0,0 0,-17000 0,-19000l6000 0 0 2000c1000,-1000 3000,-3000 6000,-3000 4000,0 8000,3000 8000,9000l0 11000zm-24000 0l-6000 0 0 -19000 6000 0 0 19000zm-3000 -22000l0 0c-2000,0 -4000,-1000 -4000,-3000 0,-2000 2000,-4000 4000,-4000 2000,0 3000,2000 3000,4000 0,2000 -1000,3000 -3000,3000z"/>
  </g>
 </g>
</svg>
