<?xml version="1.0" encoding="UTF-8"?>
<!DOCTYPE svg PUBLIC "-//W3C//DTD SVG 1.0//EN" "http://www.w3.org/TR/2001/REC-SVG-20010904/DTD/svg10.dtd">
<!-- Creator: CorelDRAW 2020 (64-Bit) -->
<svg xmlns="http://www.w3.org/2000/svg" xml:space="preserve" width="219px" height="64px" version="1.0" style="shape-rendering:geometricPrecision; text-rendering:geometricPrecision; image-rendering:optimizeQuality; fill-rule:evenodd; clip-rule:evenodd"
viewBox="0 0 1461000 430000"
 xmlns:xlink="http://www.w3.org/1999/xlink"
 xmlns:xodm="http://www.corel.com/coreldraw/odm/2003">
 <defs>
  <style type="text/css">
   <![CDATA[
    .fil1 {fill:#52C54E}
    .fil2 {fill:white}
    .fil4 {fill:white}
    .fil3 {fill:#52C54E;fill-rule:nonzero}
    .fil0 {fill:white;fill-rule:nonzero}
    .fil6 {fill:white;fill-rule:nonzero}
    .fil5 {fill:url(#id0)}
   ]]>
  </style>
  <linearGradient id="id0" gradientUnits="userSpaceOnUse" x1="319000" y1="0" x2="319000" y2="440000">
   <stop offset="0" style="stop-opacity:1; stop-color:#B8FFAB"/>
   <stop offset="1" style="stop-opacity:1; stop-color:#069908"/>
  </linearGradient>
 </defs>
 <g id="Слой_x0020_1">
  <metadata id="CorelCorpID_0Corel-Layer"/>
  <g id="_1876647498880">
   <g>
    <path class="fil0" d="M496000 291000l49000 0 0 -86000 29000 0 56000 86000 60000 0 -63000 -92000c34000,-12000 52000,-38000 52000,-76000 0,-49000 -27000,-84000 -88000,-84000l-95000 0 0 252000zm49000 -130000l0 -78000 39000 0c28000,0 44000,15000 44000,39000 0,23000 -16000,39000 -47000,39000l-36000 0zm477000 200000l47000 0 0 -89000 1000 0c12000,14000 29000,22000 50000,22000 49000,0 84000,-36000 84000,-89000 0,-53000 -35000,-90000 -82000,-90000 -22000,0 -40000,8000 -52000,22000l-1000 0 0 -20000 -47000 0 0 244000zm90000 -109000c-25000,0 -45000,-18000 -45000,-47000 0,-28000 18000,-49000 45000,-49000 25000,0 45000,19000 45000,49000 0,28000 -19000,47000 -45000,47000zm131000 39000l46000 0 0 -261000 -46000 0 0 261000zm151000 3000c45000,0 67000,-23000 67000,-54000 0,-34000 -22000,-42000 -60000,-56000 -17000,-7000 -25000,-12000 -25000,-19000 0,-9000 9000,-13000 16000,-13000 13000,0 28000,6000 41000,19000l23000 -34000c-20000,-16000 -39000,-22000 -63000,-22000 -36000,0 -63000,20000 -63000,51000 0,34000 25000,48000 54000,57000 22000,8000 31000,12000 31000,19000 0,9000 -7000,14000 -21000,14000 -19000,0 -34000,-6000 -48000,-20000l-23000 33000c19000,16000 43000,25000 71000,25000z"/>
    <polygon class="fil0" points="739000,291000 786000,291000 786000,117000 739000,117000 "/>
    <polygon class="fil1" points="737000,0 788000,0 840000,77000 787000,77000 "/>
    <polygon class="fil2" points="788000,0 737000,0 684000,77000 738000,77000 "/>
    <path class="fil3" d="M939000 291000l52000 0c-40000,-58000 -81000,-115000 -119000,-174000l-54000 0c41000,58000 81000,116000 121000,174000z"/>
    <path class="fil4" d="M937000 117000c-39000,59000 -80000,116000 -119000,174000l50000 0c41000,-57000 81000,-116000 122000,-174000l-53000 0z"/>
   </g>
   <path class="fil5" d="M33000 31000c0,-10000 8000,-18000 18000,-18000 9000,0 17000,8000 17000,18000l0 37000 115000 -65000c8000,-5000 18000,-4000 24000,3000l128000 151000c5000,7000 5000,16000 0,23000l-66000 81000 112000 137000c3000,4000 5000,8000 5000,13000 0,10000 -8000,18000 -18000,18000l-105000 0c-5000,0 -10000,-2000 -14000,-7000l-97000 -113000 0 103000c0,10000 -8000,18000 -18000,18000l-83000 0c-10000,0 -18000,-8000 -18000,-18000l0 -283000 -6000 3000c-9000,5000 -20000,2000 -25000,-6000 -5000,-9000 -1000,-20000 7000,-25000l24000 -13000 0 -57000zm35000 78000l0 285000 48000 0 0 -133000c0,-10000 8000,-18000 18000,-18000 6000,0 11000,3000 15000,7000l122000 143000 59000 0 -97000 -121000c-6000,-7000 -6000,-16000 0,-23000l65000 -80000 -109000 -128000 -121000 68000z"/>
   <path class="fil6" d="M496000 429000l5000 0 0 -17000 9000 0c9000,0 16000,-4000 16000,-14000 0,-8000 -5000,-13000 -15000,-13000l-15000 0 0 44000zm5000 -22000l0 -18000 10000 0c6000,0 9000,3000 9000,9000 0,5000 -3000,9000 -10000,9000l-9000 0zm41000 22000l5000 0 0 -17000 8000 0 12000 17000 6000 0 -12000 -18000c7000,-1000 11000,-5000 11000,-13000 0,-8000 -4000,-13000 -14000,-13000l-16000 0 0 44000zm5000 -22000l0 -18000 10000 0c6000,0 10000,3000 10000,9000 0,5000 -3000,9000 -11000,9000l-9000 0zm62000 22000c12000,0 22000,-9000 22000,-22000 0,-14000 -10000,-23000 -22000,-23000 -13000,0 -22000,10000 -22000,23000 0,13000 9000,22000 22000,22000zm0 -5000c-10000,0 -17000,-7000 -17000,-17000 0,-10000 7000,-18000 17000,-18000 9000,0 16000,7000 16000,18000 0,10000 -7000,17000 -16000,17000zm45000 5000c9000,0 13000,-5000 13000,-15000l0 -29000 -6000 0 0 29000c0,7000 -3000,10000 -7000,10000 -3000,0 -6000,-2000 -8000,-5000l-4000 4000c4000,4000 8000,6000 12000,6000zm31000 0l28000 0 0 -5000 -23000 0 0 -15000 18000 0 0 -5000 -18000 0 0 -15000 22000 0 0 -4000 -27000 0 0 44000zm45000 0l5000 0 0 -13000 7000 -7000 14000 20000 7000 0 -18000 -24000 17000 -20000 -7000 0 -20000 24000 0 0 0 -24000 -5000 0 0 44000zm58000 0l5000 0 0 -40000 14000 0 0 -4000 -32000 0 0 4000 13000 0 0 40000zm34000 0l27000 0 0 -5000 -22000 0 0 -39000 -5000 0 0 44000zm43000 0l28000 0 0 -5000 -23000 0 0 -15000 18000 0 0 -5000 -18000 0 0 -15000 22000 0 0 -4000 -27000 0 0 44000zm45000 0l13000 0c14000,0 23000,-9000 23000,-22000 0,-13000 -9000,-22000 -23000,-22000l-13000 0 0 44000zm5000 -5000l0 -35000 8000 0c10000,0 17000,8000 17000,18000 0,10000 -6000,17000 -17000,17000l-8000 0zm48000 5000l5000 0 0 -35000 1000 0 24000 35000 6000 0 0 -44000 -6000 0 0 35000 0 0 -25000 -35000 -5000 0 0 44000zm55000 0l6000 0 0 -44000 -6000 0 0 44000zm25000 0l5000 0 0 -35000 1000 0 24000 35000 6000 0 0 -44000 -6000 0 0 35000 0 0 -25000 -35000 -5000 0 0 44000zm75000 0c7000,0 13000,-2000 17000,-6000l0 -17000 -18000 0 0 5000 13000 0 0 9000c-4000,3000 -8000,4000 -12000,4000 -10000,0 -16000,-7000 -16000,-17000 0,-11000 6000,-18000 16000,-18000 5000,0 9000,2000 13000,5000l3000 -3000c-4000,-5000 -10000,-7000 -16000,-7000 -14000,0 -22000,10000 -22000,23000 0,13000 9000,22000 22000,22000zm48000 0c8000,0 15000,-4000 15000,-12000 0,-9000 -7000,-11000 -14000,-14000 -6000,-2000 -10000,-3000 -9000,-7000 0,-5000 3000,-7000 7000,-7000 4000,0 7000,2000 11000,5000l3000 -5000c-4000,-3000 -9000,-5000 -14000,-5000 -7000,0 -13000,5000 -13000,12000 0,8000 7000,10000 13000,13000 6000,2000 10000,3000 10000,8000 0,4000 -4000,7000 -9000,7000 -4000,0 -9000,-2000 -12000,-6000l-4000 4000c5000,5000 10000,7000 16000,7000zm44000 0c8000,0 15000,-4000 15000,-12000 0,-9000 -6000,-11000 -14000,-14000 -5000,-2000 -9000,-3000 -9000,-7000 0,-5000 3000,-7000 8000,-7000 3000,0 7000,2000 10000,5000l4000 -5000c-5000,-3000 -9000,-5000 -14000,-5000 -8000,0 -14000,5000 -14000,12000 0,8000 7000,10000 13000,13000 6000,2000 10000,3000 10000,8000 0,4000 -3000,7000 -9000,7000 -4000,0 -9000,-2000 -12000,-6000l-4000 4000c5000,5000 11000,7000 16000,7000zm41000 0l5000 0 0 -20000 16000 -24000 -7000 0 -11000 19000 0 0 -12000 -19000 -6000 0 15000 24000 0 20000zm47000 0c8000,0 15000,-4000 15000,-12000 0,-9000 -6000,-11000 -14000,-14000 -5000,-2000 -9000,-3000 -9000,-7000 0,-5000 3000,-7000 8000,-7000 3000,0 7000,2000 10000,5000l4000 -5000c-5000,-3000 -9000,-5000 -14000,-5000 -8000,0 -14000,5000 -14000,12000 0,8000 7000,10000 13000,13000 6000,2000 10000,3000 10000,8000 0,4000 -3000,7000 -9000,7000 -4000,0 -9000,-2000 -12000,-6000l-3000 4000c4000,5000 10000,7000 15000,7000zm40000 0l6000 0 0 -40000 13000 0 0 -4000 -32000 0 0 4000 13000 0 0 40000zm34000 0l29000 0 0 -5000 -23000 0 0 -15000 18000 0 0 -5000 -18000 0 0 -15000 21000 0 0 -4000 -27000 0 0 44000zm45000 0l6000 0 0 -34000 0 0 14000 25000 4000 0 14000 -25000 0 0 0 34000 6000 0 0 -44000 -6000 0 -16000 28000 0 0 -16000 -28000 -6000 0 0 44000z"/>
  </g>
 </g>
</svg>
