<?xml version="1.0" encoding="UTF-8"?>
<!DOCTYPE svg PUBLIC "-//W3C//DTD SVG 1.0//EN" "http://www.w3.org/TR/2001/REC-SVG-20010904/DTD/svg10.dtd">
<!-- Creator: CorelDRAW 2020 (64-Bit) -->
<svg xmlns="http://www.w3.org/2000/svg" xml:space="preserve" width="17px" height="17px" version="1.0" style="shape-rendering:geometricPrecision; text-rendering:geometricPrecision; image-rendering:optimizeQuality; fill-rule:evenodd; clip-rule:evenodd"
viewBox="0 0 5000 5000"
 xmlns:xlink="http://www.w3.org/1999/xlink"
 xmlns:xodm="http://www.corel.com/coreldraw/odm/2003">
 <defs>
  <style type="text/css">
   <![CDATA[
    .fil0 {fill:#8D8B8C}
   ]]>
  </style>
 </defs>
 <g id="Слой_x0020_1">
  <metadata id="CorelCorpID_0Corel-Layer"/>
  <path class="fil0" d="M2000 4000c0,0 0,0 -1000,-1000 0,0 0,0 0,0l0 0c0,-1000 -1000,-1000 -1000,-1000 0,-1000 0,-1000 0,-2000l0 0c0,0 0,0 0,0 0,0 0,0 0,0l1000 0c0,0 0,0 0,0 1000,0 1000,0 1000,0l0 0c0,1000 0,1000 0,1000l0 0c0,0 0,0 0,0 0,0 0,0 0,0 0,0 0,0 0,0 0,0 0,0 0,0 0,0 0,0 0,1000l-1000 0c0,0 0,0 0,0 1000,0 1000,0 1000,1000l0 0c0,0 1000,0 1000,0l0 0c0,0 0,0 0,0 0,0 0,0 0,0 0,0 0,0 1000,0 0,0 0,0 0,0l0 0c0,0 0,0 0,0 0,0 0,0 0,0 0,0 0,0 1000,0 0,0 0,0 0,0l0 1000c0,0 0,0 0,1000 -1000,0 -1000,0 -1000,0l0 0c0,0 -1000,0 -1000,-1000 0,0 -1000,0 -1000,0l0 0z"/>
 </g>
</svg>
