<?xml version="1.0" encoding="UTF-8"?>
<!DOCTYPE svg PUBLIC "-//W3C//DTD SVG 1.0//EN" "http://www.w3.org/TR/2001/REC-SVG-20010904/DTD/svg10.dtd">
<!-- Creator: CorelDRAW 2020 (64-Bit) -->
<svg xmlns="http://www.w3.org/2000/svg" xml:space="preserve" width="48px" height="48px" version="1.0" style="shape-rendering:geometricPrecision; text-rendering:geometricPrecision; image-rendering:optimizeQuality; fill-rule:evenodd; clip-rule:evenodd"
viewBox="0 0 42000 42000"
 xmlns:xlink="http://www.w3.org/1999/xlink"
 xmlns:xodm="http://www.corel.com/coreldraw/odm/2003">
 <defs>
  <style type="text/css">
   <![CDATA[
    .fil1 {fill:white}
    .fil0 {fill:url(#id0)}
   ]]>
  </style>
  <linearGradient id="id0" gradientUnits="userSpaceOnUse" x1="35000" y1="0" x2="35000" y2="43000">
   <stop offset="0" style="stop-opacity:1; stop-color:#B8FFAB"/>
   <stop offset="1" style="stop-opacity:1; stop-color:#069908"/>
  </linearGradient>
 </defs>
 <g id="Слой_x0020_1">
  <metadata id="CorelCorpID_0Corel-Layer"/>
  <path class="fil0" d="M36000 6000c-4000,-4000 -9000,-6000 -15000,-6000 -11000,0 -21000,9000 -21000,21000 0,4000 1000,7000 3000,10000l-3000 11000 11000 -3000c3000,2000 7000,3000 10000,3000l0 0c0,0 0,0 0,0 12000,0 21000,-9000 21000,-21000 0,-6000 -2000,-11000 -6000,-15000z"/>
  <path class="fil1" d="M31000 25000c-1000,0 -3000,-1000 -4000,-1000 0,-1000 -1000,-1000 -1000,0 0,0 -1000,2000 -2000,2000 0,0 0,0 -1000,0 0,0 -2000,-1000 -4000,-3000 -2000,-1000 -3000,-3000 -3000,-3000 0,-1000 0,-1000 0,-1000 0,0 1000,-1000 1000,-1000 0,0 0,-1000 1000,-1000 0,0 0,-1000 0,-1000 -1000,0 -2000,-3000 -2000,-4000 -1000,-1000 -1000,-1000 -1000,-1000 -1000,0 -1000,0 -1000,0 -1000,0 -1000,0 -2000,1000 0,0 -2000,2000 -2000,4000 0,3000 2000,5000 3000,6000 0,0 3000,5000 9000,8000 1000,0 2000,0 3000,1000 1000,0 2000,0 3000,0 1000,0 3000,-1000 3000,-3000 1000,-1000 1000,-2000 1000,-2000 0,0 -1000,0 -1000,-1000z"/>
 </g>
</svg>
